<svg width="60" height="60" viewBox="0 0 60 60" fill="none" xmlns="http://www.w3.org/2000/svg">
<rect width="60" height="60" rx="30" fill="#333333"/>
<path d="M38.2833 21.7167C37.8167 21.3667 37.2333 21.3667 36.7667 21.7167C36.3 22.1834 36.1833 22.8834 36.65 23.3501C40.2667 26.9667 40.2667 32.9167 36.65 36.5334C36.1833 37.0001 36.1833 37.7001 36.65 38.1667C36.8833 38.4001 37.1167 38.5167 37.4667 38.5167C37.8167 38.5167 38.05 38.4001 38.2833 38.1667C42.8333 33.7334 42.8333 26.2667 38.2833 21.7167Z" fill="white"/>
<path d="M34.9 25.1C34.4333 24.75 33.85 24.75 33.3833 25.1C32.9166 25.5667 32.8 26.2667 33.2666 26.7334C35.1333 28.6 35.1333 31.5167 33.2666 33.3834C32.8 33.85 32.8 34.55 33.2666 35.0167C33.5 35.25 33.7333 35.3667 34.0833 35.3667C34.4333 35.3667 34.6666 35.25 34.9 35.0167C37.7 32.2167 37.7 27.7834 34.9 25.1Z" fill="white"/>
<path d="M29.3 20.7834C28.8333 20.55 28.3666 20.6667 28.0166 21.0167L23.7 25.3334H20.6666C19.3833 25.3334 18.3333 26.3834 18.3333 27.6667V32.3334C18.3333 33.6167 19.3833 34.6667 20.6666 34.6667H23.7L28.0166 38.9834C28.25 39.2167 28.4833 39.3334 28.8333 39.3334C28.95 39.3334 29.1833 39.3334 29.3 39.2167C29.7666 38.9834 30 38.6334 30 38.1667V21.8334C30 21.3667 29.7666 20.9 29.3 20.7834Z" fill="white"/>
</svg>
